<svg width="541" height="340" viewBox="0 0 541 340" fill="none" xmlns="http://www.w3.org/2000/svg">
<mask id="path-1-outside-1_1_42" maskUnits="userSpaceOnUse" x="19.7593" y="84.1148" width="522" height="211" fill="black">
<rect fill="white" x="19.7593" y="84.1148" width="522" height="211"/>
<path d="M186.701 245.197H158.576V289.142H103.498V245.197H21.7593V201.691L97.0522 86.1148H158.576V201.691H186.701V245.197ZM103.498 201.691V141.925L65.5581 201.691H103.498Z"/>
<path d="M277.667 292.218C257.614 292.218 241.036 285.671 227.935 272.576C225.278 269.92 222.763 266.995 220.392 263.8C206.33 244.757 199.298 219.757 199.298 188.8C199.298 157.062 206.476 132.013 220.832 113.654C235.285 95.2945 254.572 86.1148 278.693 86.1148C299.031 86.1148 315.55 92.4609 328.248 105.153C331.341 108.245 334.207 111.713 336.847 115.558C350.324 135.089 357.062 160.089 357.062 190.558C357.062 221.613 349.787 246.32 335.236 264.679C320.783 283.039 301.593 292.218 277.667 292.218ZM267.368 245.43C270.239 248.302 273.868 249.738 278.253 249.738C286.652 249.738 292.267 244.416 295.099 233.771C297.931 223.029 299.347 208.38 299.347 189.826C299.347 164.337 297.443 147.687 293.634 139.875C292.192 136.838 290.543 134.392 288.688 132.535C285.769 129.616 282.34 128.156 278.4 128.156C270.587 128.156 265.167 133.332 262.14 143.683C259.21 153.937 257.746 168.097 257.746 186.164C257.746 210.675 259.21 227.423 262.14 236.408C263.446 240.242 265.189 243.25 267.368 245.43Z"/>
<path d="M538.849 245.197H510.724V289.142H455.646V245.197H373.908V201.691L449.201 86.1148H510.724V201.691H538.849V245.197ZM455.646 201.691V141.925L417.707 201.691H455.646Z"/>
</mask>
<path d="M186.701 245.197H158.576V289.142H103.498V245.197H21.7593V201.691L97.0522 86.1148H158.576V201.691H186.701V245.197ZM103.498 201.691V141.925L65.5581 201.691H103.498Z" fill="#FF8DEE"/>
<path d="M277.667 292.218C257.614 292.218 241.036 285.671 227.935 272.576C225.278 269.92 222.763 266.995 220.392 263.8C206.33 244.757 199.298 219.757 199.298 188.8C199.298 157.062 206.476 132.013 220.832 113.654C235.285 95.2945 254.572 86.1148 278.693 86.1148C299.031 86.1148 315.55 92.4609 328.248 105.153C331.341 108.245 334.207 111.713 336.847 115.558C350.324 135.089 357.062 160.089 357.062 190.558C357.062 221.613 349.787 246.32 335.236 264.679C320.783 283.039 301.593 292.218 277.667 292.218ZM267.368 245.43C270.239 248.302 273.868 249.738 278.253 249.738C286.652 249.738 292.267 244.416 295.099 233.771C297.931 223.029 299.347 208.38 299.347 189.826C299.347 164.337 297.443 147.687 293.634 139.875C292.192 136.838 290.543 134.392 288.688 132.535C285.769 129.616 282.34 128.156 278.4 128.156C270.587 128.156 265.167 133.332 262.14 143.683C259.21 153.937 257.746 168.097 257.746 186.164C257.746 210.675 259.21 227.423 262.14 236.408C263.446 240.242 265.189 243.25 267.368 245.43Z" fill="#FF8DEE"/>
<path d="M538.849 245.197H510.724V289.142H455.646V245.197H373.908V201.691L449.201 86.1148H510.724V201.691H538.849V245.197ZM455.646 201.691V141.925L417.707 201.691H455.646Z" fill="#FF8DEE"/>
<path d="M186.701 245.197V247.197H188.701V245.197H186.701ZM158.576 245.197V243.197H156.576V245.197H158.576ZM158.576 289.142V291.142H160.576V289.142H158.576ZM103.498 289.142H101.498V291.142H103.498V289.142ZM103.498 245.197H105.498V243.197H103.498V245.197ZM21.7593 245.197H19.7593V247.197H21.7593V245.197ZM21.7593 201.691L20.0835 200.599L19.7593 201.097V201.691H21.7593ZM97.0522 86.1148V84.1148H95.9682L95.3765 85.0231L97.0522 86.1148ZM158.576 86.1148H160.576V84.1148H158.576V86.1148ZM158.576 201.691H156.576V203.691H158.576V201.691ZM186.701 201.691H188.701V199.691H186.701V201.691ZM103.498 201.691V203.691H105.498V201.691H103.498ZM103.498 141.925H105.498V135.043L101.809 140.853L103.498 141.925ZM65.5581 201.691L63.8696 200.619L61.9196 203.691H65.5581V201.691ZM220.392 263.8L218.783 264.988L218.786 264.992L220.392 263.8ZM220.832 113.654L219.26 112.417L219.256 112.422L220.832 113.654ZM336.847 115.558L335.198 116.69L335.201 116.694L336.847 115.558ZM335.236 264.679L333.668 263.437L333.664 263.442L335.236 264.679ZM295.099 233.771L297.032 234.285L297.033 234.281L295.099 233.771ZM293.634 139.875L291.828 140.733L291.832 140.742L291.837 140.751L293.634 139.875ZM262.14 143.683L260.221 143.122L260.217 143.134L262.14 143.683ZM262.14 236.408L260.239 237.028L260.243 237.04L260.247 237.053L262.14 236.408ZM538.849 245.197V247.197H540.849V245.197H538.849ZM510.724 245.197V243.197H508.724V245.197H510.724ZM510.724 289.142V291.142H512.724V289.142H510.724ZM455.646 289.142H453.646V291.142H455.646V289.142ZM455.646 245.197H457.646V243.197H455.646V245.197ZM373.908 245.197H371.908V247.197H373.908V245.197ZM373.908 201.691L372.232 200.599L371.908 201.097V201.691H373.908ZM449.201 86.1148V84.1148H448.117L447.525 85.0231L449.201 86.1148ZM510.724 86.1148H512.724V84.1148H510.724V86.1148ZM510.724 201.691H508.724V203.691H510.724V201.691ZM538.849 201.691H540.849V199.691H538.849V201.691ZM455.646 201.691V203.691H457.646V201.691H455.646ZM455.646 141.925H457.646V135.043L453.957 140.853L455.646 141.925ZM417.707 201.691L416.018 200.619L414.068 203.691H417.707V201.691ZM227.935 272.576L226.521 273.991L227.935 272.576ZM328.248 105.153L326.834 106.568L328.248 105.153ZM288.688 132.535L287.273 133.949L288.688 132.535ZM267.368 245.43L265.954 246.844L267.368 245.43ZM186.701 243.197H158.576V247.197H186.701V243.197ZM156.576 245.197V289.142H160.576V245.197H156.576ZM158.576 287.142H103.498V291.142H158.576V287.142ZM105.498 289.142V245.197H101.498V289.142H105.498ZM103.498 243.197H21.7593V247.197H103.498V243.197ZM23.7593 245.197V201.691H19.7593V245.197H23.7593ZM23.435 202.783L98.728 87.2065L95.3765 85.0231L20.0835 200.599L23.435 202.783ZM97.0522 88.1148H158.576V84.1148H97.0522V88.1148ZM156.576 86.1148V201.691H160.576V86.1148H156.576ZM158.576 203.691H186.701V199.691H158.576V203.691ZM184.701 201.691V245.197H188.701V201.691H184.701ZM105.498 201.691V141.925H101.498V201.691H105.498ZM101.809 140.853L63.8696 200.619L67.2466 202.763L105.186 142.997L101.809 140.853ZM65.5581 203.691H103.498V199.691H65.5581V203.691ZM277.667 290.218C258.096 290.218 242.042 283.849 229.349 271.162L226.521 273.991C240.03 287.493 257.132 294.218 277.667 294.218V290.218ZM222.001 262.612C208.261 244.006 201.298 219.461 201.298 188.8H197.298C197.298 220.054 204.398 245.509 218.783 264.988L222.001 262.612ZM201.298 188.8C201.298 157.349 208.411 132.785 222.407 114.886L219.256 112.422C204.541 131.241 197.298 156.776 197.298 188.8H201.298ZM222.403 114.891C236.463 97.0312 255.162 88.1148 278.693 88.1148V84.1148C253.982 84.1148 234.106 93.5578 219.26 112.417L222.403 114.891ZM278.693 88.1148C298.578 88.1148 314.562 94.3013 326.834 106.568L329.661 103.738C316.537 90.6205 299.485 84.1148 278.693 84.1148V88.1148ZM335.201 116.694C348.39 135.808 355.062 160.38 355.062 190.558H359.062C359.062 159.799 352.258 134.371 338.493 114.422L335.201 116.694ZM355.062 190.558C355.062 221.309 347.86 245.531 333.668 263.437L336.803 265.922C351.714 247.108 359.062 221.917 359.062 190.558H355.062ZM333.664 263.442C319.601 281.307 300.997 290.218 277.667 290.218V294.218C302.189 294.218 321.965 284.771 336.807 265.916L333.664 263.442ZM278.253 251.738C282.917 251.738 286.927 250.243 290.14 247.198C293.307 244.196 295.559 239.821 297.032 234.285L293.166 233.257C291.807 238.365 289.836 241.974 287.388 244.295C284.985 246.572 281.989 247.738 278.253 247.738V251.738ZM297.033 234.281C299.928 223.298 301.347 208.454 301.347 189.826H297.347C297.347 208.307 295.934 222.759 293.165 233.261L297.033 234.281ZM301.347 189.826C301.347 177.04 300.87 166.423 299.906 157.994C298.947 149.613 297.49 143.22 295.432 138.998L291.837 140.751C293.587 144.342 294.986 150.18 295.932 158.449C296.872 166.671 297.347 177.123 297.347 189.826H301.347ZM295.441 139.016C293.927 135.829 292.157 133.177 290.102 131.122L287.273 133.949C288.929 135.606 290.457 137.847 291.828 140.733L295.441 139.016ZM278.4 126.156C274.003 126.156 270.193 127.632 267.094 130.591C264.043 133.505 261.792 137.748 260.221 143.122L264.06 144.245C265.516 139.267 267.489 135.746 269.857 133.484C272.178 131.268 274.984 130.156 278.4 130.156V126.156ZM260.217 143.134C257.213 153.648 255.746 168.021 255.746 186.164H259.746C259.746 168.173 261.208 154.226 264.063 144.233L260.217 143.134ZM255.746 186.164C255.746 210.654 257.198 227.703 260.239 237.028L264.042 235.788C261.223 227.144 259.746 210.697 259.746 186.164H255.746ZM260.247 237.053C261.622 241.09 263.501 244.39 265.954 246.844L268.783 244.016C266.877 242.109 265.271 239.395 264.033 235.763L260.247 237.053ZM538.849 243.197H510.724V247.197H538.849V243.197ZM508.724 245.197V289.142H512.724V245.197H508.724ZM510.724 287.142H455.646V291.142H510.724V287.142ZM457.646 289.142V245.197H453.646V289.142H457.646ZM455.646 243.197H373.908V247.197H455.646V243.197ZM375.908 245.197V201.691H371.908V245.197H375.908ZM375.583 202.783L450.876 87.2065L447.525 85.0231L372.232 200.599L375.583 202.783ZM449.201 88.1148H510.724V84.1148H449.201V88.1148ZM508.724 86.1148V201.691H512.724V86.1148H508.724ZM510.724 203.691H538.849V199.691H510.724V203.691ZM536.849 201.691V245.197H540.849V201.691H536.849ZM457.646 201.691V141.925H453.646V201.691H457.646ZM453.957 140.853L416.018 200.619L419.395 202.763L457.335 142.997L453.957 140.853ZM417.707 203.691H455.646V199.691H417.707V203.691ZM229.349 271.162C226.765 268.579 224.314 265.729 221.998 262.608L218.786 264.992C221.213 268.261 223.79 271.262 226.521 273.991L229.349 271.162ZM326.834 106.568C329.835 109.567 332.623 112.94 335.198 116.69L338.496 114.426C335.791 110.487 332.847 106.923 329.661 103.738L326.834 106.568ZM290.102 131.122C286.829 127.846 282.898 126.156 278.4 126.156V130.156C281.782 130.156 284.71 131.385 287.273 133.949L290.102 131.122ZM265.954 246.844C269.232 250.123 273.384 251.738 278.253 251.738V247.738C274.351 247.738 271.247 246.481 268.783 244.016L265.954 246.844Z" fill="#B5179E" mask="url(#path-1-outside-1_1_42)"/>
<path d="M82.9102 71.9727L7.61719 187.549L21.7593 201.691L97.0523 86.1148L82.9102 71.9727Z" fill="#FF8DEE"/>
<path d="M144.434 71.9727H82.9102L97.0523 86.1148H158.576L144.434 71.9727Z" fill="#FF8DEE"/>
<path d="M7.61719 187.549V231.055L21.7593 245.197V201.691L7.61719 187.549Z" fill="#FF8DEE"/>
<path d="M51.416 187.549L89.3555 127.783L103.498 141.925L65.5582 201.691L51.416 187.549Z" fill="#FF8DEE"/>
<path d="M89.3555 127.783V187.549L103.498 201.691V141.925L89.3555 127.783Z" fill="#FF8DEE"/>
<path d="M89.3555 187.549H51.416L65.5582 201.691H103.498L89.3555 187.549Z" fill="#FF8DEE"/>
<path d="M144.434 187.549V71.9727L158.576 86.1148V201.691L144.434 187.549Z" fill="#FF8DEE"/>
<path d="M7.61719 231.055H89.3555L103.498 245.197H21.7593L7.61719 231.055Z" fill="#FF8DEE"/>
<path d="M264.551 71.9727C240.43 71.9727 221.143 81.1523 206.689 99.5117L220.832 113.654C235.285 95.2945 254.572 86.1148 278.693 86.1148L264.551 71.9727Z" fill="#FF8DEE"/>
<path d="M206.689 99.5117C192.334 117.871 185.156 142.92 185.156 174.658L199.298 188.8C199.298 157.062 206.476 132.013 220.832 113.654L206.689 99.5117Z" fill="#FF8DEE"/>
<path d="M89.3555 231.055V275L103.498 289.142V245.197L89.3555 231.055Z" fill="#FF8DEE"/>
<path d="M172.559 187.549H144.434L158.576 201.691H186.701L172.559 187.549Z" fill="#FF8DEE"/>
<path d="M314.105 91.0109C301.408 78.3187 284.889 71.9727 264.551 71.9727L278.693 86.1148C299.031 86.1148 315.55 92.4609 328.248 105.153L314.105 91.0109Z" fill="#FF8DEE"/>
<path d="M247.998 129.541C251.025 119.189 256.445 114.014 264.258 114.014L278.4 128.156C270.587 128.156 265.168 133.332 262.14 143.683L247.998 129.541Z" fill="#FF8DEE"/>
<path d="M172.559 231.055V187.549L186.701 201.691V245.197L172.559 231.055Z" fill="#FF8DEE"/>
<path d="M264.258 114.014C268.198 114.014 271.627 115.474 274.546 118.393L288.681 132.529C285.765 129.614 282.337 128.156 278.4 128.156L264.258 114.014Z" fill="#FF8DEE"/>
<path d="M144.434 231.055H172.559L186.701 245.197H158.576L144.434 231.055Z" fill="#FF8DEE"/>
<path d="M89.3555 275H144.434L158.576 289.142H103.498L89.3555 275Z" fill="#FF8DEE"/>
<path d="M243.604 172.021C243.604 153.955 245.068 139.795 247.998 129.541L262.14 143.683C259.21 153.937 257.746 168.097 257.746 186.164L243.604 172.021Z" fill="#FF8DEE"/>
<path d="M144.434 275V231.055L158.576 245.197V289.142L144.434 275Z" fill="#FF8DEE"/>
<path d="M274.545 118.393C276.401 120.25 278.05 122.696 279.492 125.732L293.634 139.875C292.192 136.838 290.543 134.392 288.688 132.535L274.545 118.393Z" fill="#FF8DEE"/>
<path d="M185.156 174.658C185.156 205.615 192.188 230.615 206.25 249.658L220.392 263.8C206.33 244.757 199.298 219.757 199.298 188.8L185.156 174.658Z" fill="#FF8DEE"/>
<path d="M322.705 101.416C320.071 97.5801 317.212 94.119 314.127 91.0327L328.248 105.153C331.341 108.245 334.207 111.713 336.847 115.558L322.705 101.416Z" fill="#FF8DEE"/>
<path d="M279.492 125.732C283.301 133.545 285.205 150.195 285.205 175.684L299.347 189.826C299.347 164.337 297.443 147.687 293.634 139.875L279.492 125.732Z" fill="#FF8DEE"/>
<path d="M247.998 222.266C245.068 213.281 243.604 196.533 243.604 172.021L257.746 186.164C257.746 210.675 259.21 227.423 262.14 236.408L247.998 222.266Z" fill="#FF8DEE"/>
<path d="M206.25 249.658C208.621 252.853 211.136 255.778 213.793 258.434L227.909 272.55C225.261 269.901 222.756 266.985 220.392 263.8L206.25 249.658Z" fill="#FF8DEE"/>
<path d="M342.92 176.416C342.92 145.947 336.182 120.947 322.705 101.416L336.847 115.558C350.324 135.089 357.062 160.089 357.062 190.558L342.92 176.416Z" fill="#FF8DEE"/>
<path d="M253.226 231.288C251.047 229.108 249.304 226.1 247.998 222.266L262.14 236.408C263.446 240.242 265.189 243.25 267.368 245.43L253.226 231.288Z" fill="#FF8DEE"/>
<path d="M285.205 175.684C285.205 194.238 283.789 208.887 280.957 219.629L295.099 233.771C297.931 223.029 299.347 208.38 299.347 189.826L285.205 175.684Z" fill="#FF8DEE"/>
<path d="M264.111 235.596C259.728 235.596 256.101 234.161 253.231 231.292L267.368 245.43C270.239 248.302 273.868 249.738 278.253 249.738L264.111 235.596Z" fill="#FF8DEE"/>
<path d="M280.957 219.629C278.125 230.273 272.51 235.596 264.111 235.596L278.253 249.738C286.652 249.738 292.267 244.416 295.099 233.771L280.957 219.629Z" fill="#FF8DEE"/>
<path d="M213.793 258.434C226.894 271.529 243.472 278.076 263.525 278.076L277.668 292.218C257.614 292.218 241.036 285.671 227.935 272.576L213.793 258.434Z" fill="#FF8DEE"/>
<path d="M435.059 71.9727L359.766 187.549L373.908 201.691L449.201 86.1148L435.059 71.9727Z" fill="#FF8DEE"/>
<path d="M496.582 71.9727H435.059L449.201 86.1148H510.724L496.582 71.9727Z" fill="#FF8DEE"/>
<path d="M321.094 250.537C335.645 232.178 342.92 207.471 342.92 176.416L357.062 190.558C357.062 221.613 349.787 246.32 335.236 264.679L321.094 250.537Z" fill="#FF8DEE"/>
<path d="M263.525 278.076C287.451 278.076 306.641 268.896 321.094 250.537L335.236 264.679C320.783 283.039 301.593 292.218 277.668 292.218L263.525 278.076Z" fill="#FF8DEE"/>
<path d="M359.766 187.549V231.055L373.908 245.197V201.691L359.766 187.549Z" fill="#FF8DEE"/>
<path d="M403.564 187.549L441.504 127.783L455.646 141.925L417.707 201.691L403.564 187.549Z" fill="#FF8DEE"/>
<path d="M441.504 127.783V187.549L455.646 201.691V141.925L441.504 127.783Z" fill="#FF8DEE"/>
<path d="M441.504 187.549H403.564L417.707 201.691H455.646L441.504 187.549Z" fill="#FF8DEE"/>
<path d="M496.582 187.549V71.9727L510.724 86.1148V201.691L496.582 187.549Z" fill="#FF8DEE"/>
<path d="M359.766 231.055H441.504L455.646 245.197H373.908L359.766 231.055Z" fill="#FF8DEE"/>
<path d="M441.504 231.055V275L455.646 289.142V245.197L441.504 231.055Z" fill="#FF8DEE"/>
<path d="M524.707 187.549H496.582L510.724 201.691H538.849L524.707 187.549Z" fill="#FF8DEE"/>
<path d="M524.707 231.055V187.549L538.849 201.691V245.197L524.707 231.055Z" fill="#FF8DEE"/>
<path d="M496.582 231.055H524.707L538.849 245.197H510.724L496.582 231.055Z" fill="#FF8DEE"/>
<path d="M441.504 275H496.582L510.724 289.142H455.646L441.504 275Z" fill="#FF8DEE"/>
<path d="M496.582 275V231.055L510.724 245.197V289.142L496.582 275Z" fill="#FF8DEE"/>
<path d="M172.559 231.055H144.434V275H89.3555V231.055H7.61719V187.549L82.9102 71.9727H144.434V187.549H172.559V231.055ZM89.3555 187.549V127.783L51.416 187.549H89.3555ZM263.525 278.076C239.404 278.076 220.312 268.604 206.25 249.658C192.188 230.615 185.156 205.615 185.156 174.658C185.156 142.92 192.334 117.871 206.689 99.5117C221.143 81.1523 240.43 71.9727 264.551 71.9727C289.844 71.9727 309.229 81.7871 322.705 101.416C336.182 120.947 342.92 145.947 342.92 176.416C342.92 207.471 335.645 232.178 321.094 250.537C306.641 268.896 287.451 278.076 263.525 278.076ZM264.111 235.596C272.51 235.596 278.125 230.273 280.957 219.629C283.789 208.887 285.205 194.238 285.205 175.684C285.205 150.195 283.301 133.545 279.492 125.732C275.781 117.92 270.703 114.014 264.258 114.014C256.445 114.014 251.025 119.189 247.998 129.541C245.068 139.795 243.604 153.955 243.604 172.021C243.604 196.533 245.068 213.281 247.998 222.266C251.025 231.152 256.396 235.596 264.111 235.596ZM524.707 231.055H496.582V275H441.504V231.055H359.766V187.549L435.059 71.9727H496.582V187.549H524.707V231.055ZM441.504 187.549V127.783L403.564 187.549H441.504Z" fill="url(#paint0_angular_1_42)" fill-opacity="0.8"/>
<path d="M172.559 231.055V233.055H174.559V231.055H172.559ZM144.434 231.055V229.055H142.434V231.055H144.434ZM144.434 275V277H146.434V275H144.434ZM89.3555 275H87.3555V277H89.3555V275ZM89.3555 231.055H91.3555V229.055H89.3555V231.055ZM7.61719 231.055H5.61719V233.055H7.61719V231.055ZM7.61719 187.549L5.94142 186.457L5.61719 186.955V187.549H7.61719ZM82.9102 71.9727V69.9727H81.8261L81.2344 70.881L82.9102 71.9727ZM144.434 71.9727H146.434V69.9727H144.434V71.9727ZM144.434 187.549H142.434V189.549H144.434V187.549ZM172.559 187.549H174.559V185.549H172.559V187.549ZM89.3555 187.549V189.549H91.3555V187.549H89.3555ZM89.3555 127.783H91.3555V120.901L87.667 126.711L89.3555 127.783ZM51.416 187.549L49.7275 186.477L47.7775 189.549H51.416V187.549ZM172.559 229.055H144.434V233.055H172.559V229.055ZM142.434 231.055V275H146.434V231.055H142.434ZM144.434 273H89.3555V277H144.434V273ZM91.3555 275V231.055H87.3555V275H91.3555ZM89.3555 229.055H7.61719V233.055H89.3555V229.055ZM9.61719 231.055V187.549H5.61719V231.055H9.61719ZM9.29296 188.641L84.5859 73.0643L81.2344 70.881L5.94142 186.457L9.29296 188.641ZM82.9102 73.9727H144.434V69.9727H82.9102V73.9727ZM142.434 71.9727V187.549H146.434V71.9727H142.434ZM144.434 189.549H172.559V185.549H144.434V189.549ZM170.559 187.549V231.055H174.559V187.549H170.559ZM91.3555 187.549V127.783H87.3555V187.549H91.3555ZM87.667 126.711L49.7275 186.477L53.1045 188.621L91.044 128.855L87.667 126.711ZM51.416 189.549H89.3555V185.549H51.416V189.549ZM206.25 249.658L204.641 250.846L204.644 250.85L206.25 249.658ZM206.689 99.5117L205.118 98.2746L205.114 98.2798L206.689 99.5117ZM322.705 101.416L321.056 102.548L321.059 102.552L322.705 101.416ZM321.094 250.537L319.526 249.295L319.522 249.3L321.094 250.537ZM280.957 219.629L282.89 220.143L282.891 220.139L280.957 219.629ZM279.492 125.732L277.686 126.591L277.69 126.6L277.694 126.609L279.492 125.732ZM247.998 129.541L246.078 128.98L246.075 128.992L247.998 129.541ZM247.998 222.266L246.097 222.886L246.101 222.898L246.105 222.911L247.998 222.266ZM263.525 276.076C240.021 276.076 221.531 266.89 207.856 248.466L204.644 250.85C219.094 270.317 238.788 280.076 263.525 280.076V276.076ZM207.859 248.47C194.119 229.864 187.156 205.319 187.156 174.658H183.156C183.156 205.912 190.256 231.367 204.641 250.846L207.859 248.47ZM187.156 174.658C187.156 143.206 194.269 118.643 208.265 100.744L205.114 98.2798C190.399 117.099 183.156 142.633 183.156 174.658H187.156ZM208.261 100.749C222.321 82.889 241.02 73.9727 264.551 73.9727V69.9727C239.84 69.9727 219.964 79.4157 205.118 98.2746L208.261 100.749ZM264.551 73.9727C289.233 73.9727 307.979 83.5013 321.056 102.548L324.354 100.284C310.478 80.0729 290.454 69.9727 264.551 69.9727V73.9727ZM321.059 102.552C334.247 121.666 340.92 146.238 340.92 176.416H344.92C344.92 145.656 338.116 120.229 324.351 100.28L321.059 102.552ZM340.92 176.416C340.92 207.167 333.718 231.389 319.526 249.295L322.661 251.779C337.572 232.966 344.92 207.775 344.92 176.416H340.92ZM319.522 249.3C305.459 267.164 286.855 276.076 263.525 276.076V280.076C288.047 280.076 307.822 270.629 322.665 251.774L319.522 249.3ZM264.111 237.596C268.775 237.596 272.785 236.1 275.997 233.056C279.165 230.054 281.417 225.679 282.89 220.143L279.024 219.115C277.665 224.223 275.694 227.832 273.246 230.152C270.843 232.43 267.847 233.596 264.111 233.596V237.596ZM282.891 220.139C285.786 209.156 287.205 194.312 287.205 175.684H283.205C283.205 194.165 281.792 208.617 279.023 219.119L282.891 220.139ZM287.205 175.684C287.205 162.898 286.728 152.281 285.764 143.852C284.805 135.471 283.348 129.077 281.29 124.856L277.694 126.609C279.445 130.2 280.844 136.038 281.79 144.307C282.73 152.529 283.205 162.981 283.205 175.684H287.205ZM281.299 124.874C277.39 116.645 271.744 112.014 264.258 112.014V116.014C269.662 116.014 274.173 119.195 277.686 126.591L281.299 124.874ZM264.258 112.014C259.861 112.014 256.051 113.49 252.952 116.449C249.901 119.363 247.65 123.606 246.078 128.98L249.918 130.102C251.373 125.125 253.346 121.604 255.715 119.342C258.036 117.126 260.842 116.014 264.258 116.014V112.014ZM246.075 128.992C243.071 139.506 241.604 153.879 241.604 172.021H245.604C245.604 154.031 247.066 140.084 249.921 130.09L246.075 128.992ZM241.604 172.021C241.604 196.512 243.056 213.561 246.097 222.886L249.9 221.646C247.081 213.002 245.604 196.555 245.604 172.021H241.604ZM246.105 222.911C247.698 227.586 249.969 231.278 253.022 233.804C256.105 236.355 259.841 237.596 264.111 237.596V233.596C260.666 233.596 257.86 232.615 255.572 230.722C253.254 228.805 251.326 225.832 249.891 221.621L246.105 222.911ZM524.707 231.055V233.055H526.707V231.055H524.707ZM496.582 231.055V229.055H494.582V231.055H496.582ZM496.582 275V277H498.582V275H496.582ZM441.504 275H439.504V277H441.504V275ZM441.504 231.055H443.504V229.055H441.504V231.055ZM359.766 231.055H357.766V233.055H359.766V231.055ZM359.766 187.549L358.09 186.457L357.766 186.955V187.549H359.766ZM435.059 71.9727V69.9727H433.975L433.383 70.881L435.059 71.9727ZM496.582 71.9727H498.582V69.9727H496.582V71.9727ZM496.582 187.549H494.582V189.549H496.582V187.549ZM524.707 187.549H526.707V185.549H524.707V187.549ZM441.504 187.549V189.549H443.504V187.549H441.504ZM441.504 127.783H443.504V120.901L439.815 126.711L441.504 127.783ZM403.564 187.549L401.876 186.477L399.926 189.549H403.564V187.549ZM524.707 229.055H496.582V233.055H524.707V229.055ZM494.582 231.055V275H498.582V231.055H494.582ZM496.582 273H441.504V277H496.582V273ZM443.504 275V231.055H439.504V275H443.504ZM441.504 229.055H359.766V233.055H441.504V229.055ZM361.766 231.055V187.549H357.766V231.055H361.766ZM361.441 188.641L436.734 73.0643L433.383 70.881L358.09 186.457L361.441 188.641ZM435.059 73.9727H496.582V69.9727H435.059V73.9727ZM494.582 71.9727V187.549H498.582V71.9727H494.582ZM496.582 189.549H524.707V185.549H496.582V189.549ZM522.707 187.549V231.055H526.707V187.549H522.707ZM443.504 187.549V127.783H439.504V187.549H443.504ZM439.815 126.711L401.876 186.477L405.253 188.621L443.192 128.855L439.815 126.711ZM403.564 189.549H441.504V185.549H403.564V189.549Z" fill="#B5179E"/>
<defs>
<radialGradient id="paint0_angular_1_42" cx="0" cy="0" r="1" gradientUnits="userSpaceOnUse" gradientTransform="translate(264.5 170) rotate(88.1653) scale(170.087 272.461)">
<stop offset="0.161466" stop-color="#0B90AD"/>
<stop offset="0.838542" stop-color="#B217B5"/>
</radialGradient>
</defs>
</svg>
