<svg width="91" height="105" viewBox="0 0 91 105" fill="none" xmlns="http://www.w3.org/2000/svg">
<path fill-rule="evenodd" clip-rule="evenodd" d="M38.0083 4.92301C38.3494 0.239713 44.4934 -1.27453 46.967 2.71506L63.7802 29.8323C64.0922 30.3354 64.655 30.6272 65.2468 30.5927L89.8865 29.1564L90.0709 32.3795L65.4312 33.8158C63.6558 33.9193 61.9674 33.0439 61.0316 31.5346L44.2184 4.41738C43.3939 3.08752 41.3459 3.59227 41.2322 5.15337L38.9448 36.5608C38.7923 38.6549 37.3064 40.414 35.2651 40.9171L4.70539 48.4488C3.18593 48.8233 3.03027 50.92 4.47811 51.5107L33.64 63.4077C35.5804 64.1993 36.7899 66.1478 36.6378 68.237L34.3486 99.6692C34.2349 101.229 36.1867 102.021 37.1961 100.823L57.8719 76.3026C58.9284 75.0497 60.5464 74.414 62.173 74.6126L90.1768 78.0323L89.7807 81.2371L61.7769 77.8174C61.2347 77.7512 60.6954 77.9631 60.3432 78.3807L39.6674 102.902C36.6392 106.493 30.7838 104.12 31.1247 99.4389L33.414 68.0066C33.4647 67.3102 33.0615 66.6607 32.4147 66.3969L3.25279 54.4998C-1.09069 52.7278 -0.623785 46.4377 3.93465 45.3143L34.4944 37.7825C35.1748 37.6149 35.6701 37.0285 35.7209 36.3304L38.0083 4.92301Z" fill="url(#paint0_linear_2_52)"/>
<defs>
<linearGradient id="paint0_linear_2_52" x1="100.976" y1="-10.5296" x2="-15.976" y2="19.7216" gradientUnits="userSpaceOnUse">
<stop stop-color="#560BAD"/>
<stop offset="1" stop-color="#B5179E"/>
</linearGradient>
</defs>
</svg>
